Coordinates
version=1
nRows=43
nColumns=12
inDegrees=yes

Units are S.I. units (second, meters, Newtons, ...)
Angles are in degrees

endheader
time	SC_y	SC_z	SC_x	AC_y	AC_z	AC_x	GH_y	GH_z	GH_yy	EL_x	PS_y
       0.0              -39.57          1.447          9.857          63.91         -14.72          12.63         -9.317          62.85         -171.0          124.3          43.83
   0.03199              -39.57          1.446          9.858          63.91         -14.72          12.63         -9.299          62.85         -170.9          124.3          43.85
   0.06399              -39.57          1.445           9.86          63.91         -14.72          12.63         -9.281          62.85         -170.9          124.3          43.86
   0.09598              -39.56          1.444          9.861          63.91         -14.72          12.62         -9.261          62.85         -170.9          124.3          43.87
     0.128              -39.56          1.443          9.863          63.91         -14.72          12.62         -9.241          62.86         -170.8          124.3          43.88
      0.16              -39.56          1.442          9.865          63.91         -14.72          12.62         -9.219          62.86         -170.8          124.3           43.9
     0.192              -39.55          1.441          9.867          63.91         -14.72          12.62         -9.195          62.86         -170.8          124.3          43.91
     0.224              -39.55           1.44          9.869          63.91         -14.72          12.61          -9.17          62.86         -170.7          124.3          43.93
     0.256              -39.55          1.438          9.871          63.91         -14.72          12.61         -9.143          62.86         -170.7          124.3          43.95
    0.2879              -39.54          1.437          9.873          63.91         -14.71           12.6         -9.114          62.87         -170.6          124.3          43.96
    0.3199              -39.54          1.435          9.876          63.91         -14.71           12.6         -9.083          62.87         -170.6          124.3          43.98
    0.3519              -39.53          1.434          9.879          63.91         -14.71           12.6         -9.049          62.87         -170.5          124.3          44.01
    0.3839              -39.53          1.432          9.881          63.91         -14.71          12.59         -9.013          62.87         -170.5          124.3          44.03
    0.4159              -39.52           1.43          9.885          63.91         -14.71          12.59         -8.974          62.88         -170.4          124.2          44.05
    0.4479              -39.51          1.428          9.888          63.91         -14.71          12.58         -8.932          62.88         -170.3          124.2          44.08
    0.4799              -39.51          1.425          9.892          63.91          -14.7          12.57         -8.886          62.88         -170.3          124.2          44.11
    0.5119               -39.5          1.423          9.896          63.91          -14.7          12.57         -8.836          62.89         -170.2          124.2          44.14
    0.5439              -39.49           1.42            9.9          63.91          -14.7          12.56         -8.782          62.89         -170.1          124.2          44.18
    0.5759              -39.48          1.417          9.905          63.91          -14.7          12.55         -8.722           62.9         -170.0          124.2          44.21
    0.6079              -39.47          1.414           9.91          63.91         -14.69          12.54         -8.657           62.9         -169.9          124.2          44.26
    0.6399              -39.46           1.41          9.916          63.91         -14.69          12.53         -8.586          62.91         -169.8          124.2           44.3
    0.6719              -39.45          1.406          9.923          63.91         -14.69          12.52         -8.508          62.91         -169.7          124.2          44.35
    0.7039              -39.44          1.402           9.93          63.91         -14.68          12.51         -8.421          62.92         -169.5          124.2          44.41
    0.7359              -39.42          1.397          9.938          63.92         -14.68           12.5         -8.325          62.93         -169.4          124.2          44.47
    0.7679               -39.4          1.392          9.946          63.92         -14.67          12.48         -8.219          62.93         -169.2          124.1          44.54
    0.7999              -39.39          1.386          9.956          63.92         -14.67          12.47           -8.1          62.94         -169.0          124.1          44.61
    0.8319              -39.37          1.379          9.967          63.92         -14.66          12.45         -7.966          62.95         -168.8          124.1           44.7
    0.8638              -39.34          1.371          9.979          63.92         -14.66          12.43         -7.816          62.96         -168.5          124.1          44.79
    0.8958              -39.32          1.363          9.993          63.92         -14.65          12.41         -7.647          62.98         -168.3          124.1           44.9
    0.9278              -39.29          1.353          10.01          63.92         -14.64          12.38         -7.454          62.99         -168.0          124.0          45.02
    0.9598              -39.25          1.342          10.03          63.92         -14.63          12.35         -7.235          63.01         -167.6          124.0          45.16
    0.9918              -39.22          1.329          10.05          63.92         -14.62          12.32         -6.983          63.03         -167.2          124.0          45.33
     1.024              -39.17          1.315          10.07          63.92         -14.61          12.28         -6.692          63.05         -166.7          123.9          45.51
     1.056              -39.12          1.297           10.1          63.93         -14.59          12.23         -6.354          63.07         -166.2          123.9          45.73
     1.088              -39.06          1.277          10.13          63.93         -14.58          12.18         -5.958           63.1         -165.5          123.8          45.98
      1.12              -38.99          1.254          10.17          63.93         -14.56          12.11         -5.492          63.14         -164.8          123.8          46.28
     1.152               -38.9          1.226          10.21          63.93         -14.53          12.04         -4.937          63.18         -163.9          123.7          46.63
     1.184               -38.8          1.192          10.27          63.94          -14.5          11.95         -4.273          63.23         -162.8          123.6          47.06
     1.216              -38.68          1.152          10.33          63.94         -14.47          11.84         -3.469          63.29         -161.5          123.5          47.57
     1.248              -38.53          1.102          10.41          63.95         -14.43           11.7         -2.487          63.37         -160.0          123.4           48.2
      1.28              -38.34          1.041          10.51          63.95         -14.37          11.54         -1.276          63.46         -158.0          123.2          48.97
     1.312              -38.11         0.9645          10.64          63.96         -14.31          11.34         0.2356          63.57         -155.6          123.0          49.94
     1.344              -37.82         0.8682          10.79          63.97         -14.22          11.08          2.139          63.71         -152.5          122.7          51.15
